<!DOCTYPE svg PUBLIC "-//W3C//DTD SVG 20010904//EN" "http://www.w3.org/TR/2001/REC-SVG-20010904/DTD/svg10.dtd">
<svg version="1.0" xmlns="http://www.w3.org/2000/svg" width="1087px" height="333px" viewBox="0 0 10870 3330" preserveAspectRatio="xMidYMid meet">
<g id="layer101" fill="#010101" stroke="none">
 <path d="M0 1665 l0 -1665 5435 0 5435 0 0 1665 0 1665 -5435 0 -5435 0 0 -1665z"/>
 </g>
<g id="layer102" fill="#ffffff" stroke="none">
 <path d="M0 1665 l0 -1665 5435 0 5435 0 0 1665 0 1665 -5435 0 -5435 0 0 -1665z m10166 1088 c148 -72 263 -322 324 -703 43 -270 72 -716 51 -768 -24 -58 -119 -72 -172 -24 l-31 28 -13 187 c-19 253 -33 284 -186 398 -72 53 -154 94 -210 104 -31 6 -39 3 -58 -20 -17 -23 -21 -41 -21 -104 0 -99 18 -168 85 -319 30 -68 55 -135 55 -150 0 -33 -32 -87 -59 -102 -30 -16 -100 -1 -133 29 -65 58 -170 497 -154 640 8 69 49 155 89 185 106 80 235 49 465 -111 l95 -65 -7 64 c-27 241 -130 504 -218 558 -40 24 -86 25 -178 4 -75 -17 -177 -75 -204 -117 -31 -47 -91 -54 -123 -16 -21 26 -25 76 -9 107 21 41 108 116 180 157 143 79 317 95 432 38z m-9323 -469 c147 -32 375 -165 434 -253 31 -46 30 -96 -2 -117 -33 -22 -65 -13 -146 41 -353 233 -627 186 -629 -109 0 -89 21 -169 76 -285 120 -254 340 -489 516 -551 68 -24 111 -25 128 -5 12 15 12 22 -6 198 -6 62 -5 70 16 92 16 17 34 25 57 25 68 0 155 -67 167 -127 33 -180 -5 -286 -126 -347 -102 -50 -241 -38 -395 35 -385 183 -726 737 -663 1079 23 129 92 220 215 282 115 59 223 72 358 42z m5000 -29 c60 -31 132 -57 236 -85 220 -59 383 -136 526 -250 179 -143 270 -298 282 -481 19 -297 -167 -509 -481 -549 -55 -7 -145 -6 -310 4 -127 7 -263 13 -303 12 -82 -1 -114 15 -148 77 -18 34 -19 39 -5 64 8 16 34 37 57 48 50 24 52 35 28 180 -27 160 -54 395 -70 593 -11 137 -21 209 -35 245 -29 76 -26 100 18 147 54 56 92 55 205 -5z m-1975 -3 c37 -24 49 -61 56 -176 4 -60 13 -123 20 -140 17 -40 61 -80 79 -73 8 3 66 65 129 139 184 214 242 257 343 258 73 0 126 -18 161 -56 40 -42 50 -79 29 -110 -13 -20 -24 -24 -66 -24 -27 0 -64 -6 -82 -14 -69 -29 -327 -286 -327 -327 0 -24 111 -120 233 -201 56 -37 119 -79 140 -93 63 -42 88 -134 47 -175 -15 -15 -33 -20 -73 -20 -78 0 -144 45 -384 261 -113 101 -209 185 -213 187 -13 5 21 -216 106 -693 32 -177 29 -248 -10 -282 -53 -46 -133 -15 -173 67 -33 68 -66 302 -118 840 -9 91 -28 230 -41 310 -49 283 -46 260 -28 289 37 57 112 72 172 33z m3360 4 c15 -8 38 -26 51 -40 l25 -26 -13 -103 c-18 -150 -1 -306 55 -524 24 -95 44 -187 44 -206 0 -53 -60 -97 -132 -97 -40 0 -95 54 -101 101 -3 19 -17 108 -32 199 -59 363 -66 424 -63 527 2 84 7 106 24 130 38 51 91 66 142 39z m1713 -24 c18 -20 31 -51 38 -89 25 -128 44 -201 72 -269 76 -184 279 -434 352 -434 10 0 37 14 58 31 74 58 134 57 165 -2 36 -70 -5 -168 -88 -210 -60 -31 -153 -29 -221 5 -102 50 -228 198 -345 406 -30 52 -51 86 -48 75 3 -11 12 -60 21 -110 8 -49 24 -119 35 -155 45 -147 36 -206 -34 -230 -63 -20 -131 11 -165 76 -21 41 -43 280 -48 524 -6 283 1 346 49 393 26 27 34 29 80 25 42 -4 57 -11 79 -36z m-6868 -20 c145 -72 285 -221 348 -372 101 -239 26 -498 -168 -587 -105 -48 -268 -29 -375 45 -90 62 -174 169 -238 304 -55 115 -74 194 -73 308 0 125 25 193 97 266 69 68 115 84 233 81 84 -3 98 -6 176 -45z m1039 11 c217 -102 379 -313 408 -535 14 -103 3 -173 -39 -264 -69 -147 -201 -217 -365 -193 -136 19 -251 103 -350 253 -181 277 -192 562 -28 706 63 56 110 70 217 67 77 -2 100 -7 157 -34z m5326 22 c55 -24 82 -53 82 -91 0 -26 -7 -36 -35 -54 -46 -29 -63 -63 -76 -157 -13 -92 -8 -163 28 -380 21 -135 24 -167 14 -191 -12 -30 -47 -52 -80 -52 -10 0 -24 -15 -34 -35 -28 -58 -69 -77 -157 -72 -107 5 -188 47 -300 154 -199 189 -321 424 -324 623 -1 63 4 84 25 125 103 201 387 125 612 -165 l27 -35 0 70 c0 76 22 176 46 213 21 31 73 62 107 62 15 0 44 -7 65 -15z m-965 -1255 c80 -50 107 -123 72 -190 -21 -41 -69 -64 -133 -63 -87 2 -152 61 -152 139 0 40 44 109 82 127 48 24 78 21 131 -13z"/>
 <path d="M5876 2022 c-25 -24 24 -516 85 -866 l11 -64 130 -12 c241 -23 369 0 464 83 152 134 134 392 -41 572 -67 70 -170 140 -260 178 -115 48 -377 122 -389 109z"/>
 <path d="M1847 2059 c-53 -31 -73 -171 -41 -293 21 -83 97 -226 146 -277 96 -99 222 -91 269 17 62 138 15 319 -117 452 -92 92 -200 134 -257 101z"/>
 <path d="M2907 2059 c-53 -31 -73 -174 -42 -293 31 -119 118 -264 185 -311 55 -38 131 -45 178 -15 63 39 96 162 73 272 -43 206 -279 414 -394 347z"/>
 <path d="M7784 2004 c-23 -90 40 -257 154 -410 97 -132 188 -200 245 -186 32 8 50 59 44 128 -11 143 -200 405 -343 474 -58 29 -92 27 -100 -6z"/>
 </g>

</svg>